<svg xmlns="http://www.w3.org/2000/svg" viewBox="0 0 25.65 37.24"><title>r4</title><g data-name="&#x56FE;&#x5C42; 2"><g data-name="Layer 1"><path d="M24.6 11.28C24.6 6 20.41 1 15.16 1H3.43l13.22 20.48c4.95-.63 7.95-5.41 7.95-10.2zM16.65 21.48L3.43 1H2.22l13.27 20.56a8.79 8.79 0 0 0 1.16-.08z" fill="#fff"/><path fill="#f7931e" d="M1.05 1.05v.2l13.14 20.31h1.3L2.22 1.05H1.05z"/><path fill="#ed1c24" d="M1.05 21.56h11.87L1.05 3.21v18.35z"/><path fill="#f15a24" d="M1.05 3.21l11.87 18.35h1.27L1.05 1.25v1.96z"/><path d="M16.17 22.61a9.62 9.62 0 0 0 1.11-.15c5-1 8.37-5.8 8.37-11.18C25.65 5.72 21.24 0 15.16 0H0v37.24h1V22.61h13.9l9.44 14.64h1.26l-9.44-14.64zm-2-1H1V1h14.16c5.25 0 9.44 5 9.44 10.28 0 4.79-3 9.57-8 10.21a8.79 8.79 0 0 1-1.12.08h-1.29z" fill="#1a1a1a"/></g></g></svg>